<svg width="181" height="151" viewBox="0 0 181 151" fill="none" xmlns="http://www.w3.org/2000/svg">
<path d="M147.298 102.737C148.096 102.014 148.685 101.444 149.626 101.046C150.732 100.579 151.214 99.0729 152.214 98.5329C153.897 97.6271 155.114 96.7019 156.147 94.9893C157.503 92.7431 159.192 90.2345 159.31 87.4633C159.514 82.6181 160.653 84.6125 159.971 77.0004C159.811 75.2211 158.434 73.7947 157.585 72.3854C156.728 70.9633 156.186 69.4615 155.028 68.1534C149.697 62.127 150.658 63.5642 143.75 60.1433C141.85 59.203 137.202 57.9853 135.318 57.7744C132.665 57.4754 129.921 57.5227 127.266 57.7615C126.169 57.8605 124.878 58.3682 123.832 58.6716L119.254 60.0013C118.128 60.3283 116.652 60.6983 115.725 61.3954L112.887 63.5254C109.703 65.9158 108.588 68.9451 106.548 68.2846C105.503 67.9468 105.081 67.0496 104.976 65.961C104.844 64.6055 105.352 64.0504 106.23 63.2436C111.099 58.7749 112.313 57.3979 114.516 51.0724C115.538 48.1378 115.411 45.5194 114.746 42.5632C114.004 39.2627 113.569 35.8698 111.768 32.9437C110.131 30.2844 103.88 25.8394 100.903 25.7985L96.2703 25.734C96.0637 25.7318 95.9109 25.792 95.8464 25.8674C94.975 26.9108 99.3341 25.99 101.088 26.5042C102.331 26.87 103.749 27.5283 104.758 28.3545C105.767 29.1807 105.41 32.4252 103.848 32.5414C102.828 32.6167 101.897 30.2027 100.664 30.0693C99.2631 29.9187 97.7979 29.7939 96.3413 30.0026C94.4887 30.2672 92.619 32.5586 90.6696 32.3951C89.2603 32.2767 90.3297 29.8046 91.1043 29.2495C92.4942 28.2534 93.4194 27.2164 95.3214 26.8205C94.3532 26.0976 93.2903 26.6505 92.4447 27.0894L86.5665 30.1317C81.8954 32.5478 81.5963 35.2308 79.2618 39.3337C78.3797 40.8828 77.958 42.4147 77.2415 43.9681C75.9634 46.7371 73.1986 52.5226 72.9146 55.397C72.8328 56.2318 71.6387 57.2882 70.7652 56.7869C69.4182 56.0166 67.9466 54.431 67.9186 52.7893L67.6755 38.2773C67.6496 36.782 66.4361 35.3297 67.9573 34.0324C67.8648 30.704 67.6453 27.367 67.9573 24.0106C68.0498 23.0101 68.7921 22.2765 68.6824 21.0695C68.62 20.3767 69.543 19.5957 69.7948 18.8104C70.4897 16.6373 70.9631 13.9156 72.6263 12.3042C73.6526 11.3101 74.098 10.4388 75.0038 9.35011C79.0359 4.49197 85.3078 1.36151 91.6249 1.01296C93.187 0.926902 94.0713 0.546082 95.4247 0.326627C99.1706 -0.282254 103.112 0.14805 106.895 0.141596C107.811 0.141596 108.438 1.32493 109.296 1.44972C111.252 1.73372 112.911 2.74709 114.699 3.28712C116.865 3.94119 118.526 5.07288 120.4 6.18522C121.911 7.08456 123.167 7.80101 124.383 9.18014C126.13 11.1617 127.765 12.8205 128.929 15.5831C129.928 17.9497 131.449 20.1034 131.877 22.6917C132.026 23.5889 132.23 24.2967 132.579 25.1595C133.213 26.7323 132.228 28.731 132.757 30.3038C133.437 32.3327 133.857 34.3035 132.744 36.3883C132.475 36.8918 132.843 37.8363 132.613 38.4408L130.033 45.1966C131.606 43.9401 138.99 41.8575 139.918 41.8467C144.217 41.7886 148.565 41.3346 152.67 41.9887C157.318 42.731 161.595 44.7125 164.937 47.7161C166.369 49.0048 167.318 50.1172 168.964 51.1327C171.29 52.5677 172.721 55.3798 173.651 57.9229C174.186 59.3902 174.858 60.565 175.439 62L176.977 65.7996L178.287 69.0678C178.855 70.4856 179.634 72.209 179.735 73.7215C179.83 75.1372 180.493 76.0495 180.688 77.3253C181.052 79.6877 181.151 82.56 180.693 84.9439C180.305 86.9555 179.169 88.6983 178.92 90.8089C178.614 93.3864 175.522 101.057 174.016 102.864C173.672 103.277 169.519 108.746 170.025 108.23L167 111.313C165.623 112.716 164.726 114.198 163.08 115.457C160.461 117.46 157.832 119.235 154.693 120.562C152.156 121.634 149.854 123.204 147.093 123.772L143.64 124.482C141.897 124.842 139.58 124.868 137.82 124.489C132.602 123.364 135.617 124.579 129.771 122.944C128.368 122.552 126.959 121.698 125.739 120.975L122.606 119.119L119.252 117.092L115.917 115.065L112.534 113.056C111.418 112.393 110.35 111.859 109.259 111.139L106.428 109.265C105.251 108.486 104.408 106.857 105.402 105.661C105.798 105.185 107.153 104.564 107.689 104.828L112.295 107.102L123.443 110.717C124.943 111.203 127.161 110.82 128.699 110.674C129.9 110.56 130.698 109.962 132.082 110.011C133.039 110.046 134.377 109.2 135.488 109.09C137.773 108.862 141.807 107.074 143.44 105.379C144.464 104.314 146.138 103.78 147.293 102.735L147.298 102.737Z" fill="url(#paint0_linear_12_56)"/>
<path d="M41.3205 110.969C44.4059 108.953 44.5995 110.999 48.6553 109.686C50.355 109.136 52.1861 108.961 53.7825 108.045C55.5339 107.038 57.4618 106.362 59.1314 105.248C60.5085 104.329 61.8231 103.681 63.3034 102.896C65.143 101.922 66.8772 100.626 68.5619 99.3956L71.0728 97.5647C75.021 94.6859 74.9887 91.8976 76.9618 91.4694C77.6481 91.321 77.9967 92.1923 78.2678 92.5925C78.7476 93.3047 78.1193 93.8447 77.9881 94.5569C77.4072 97.7153 75.0146 103.832 73.1663 106.36L71.3418 108.854C69.7066 111.091 67.7077 113.187 65.4421 114.762L63.1549 116.354C60.687 118.073 55.2327 121.419 52.6659 122.292C50.0753 123.174 47.4224 123.635 44.8297 124.276C42.237 124.917 40.0144 124.209 37.439 124.003L34.0846 123.731C30.9411 123.478 28.0989 121.978 25.0866 120.696C21.6892 119.252 19.0815 116.365 17.4785 112.993L12.7256 102.997C10.29 97.8745 10.8624 89.3932 11.0173 83.7003C11.0517 82.4459 12.0888 81.3336 11.6004 79.9071C11.1916 78.7152 11.8801 77.5727 12.0414 76.4281C12.7967 71.0816 14.5674 66.0406 18.0057 61.5998C19.7399 59.3601 21.9818 57.3635 24.1313 55.4271C24.6907 54.9237 31.8857 51.1929 33.9878 51.1908C37.368 51.1843 38.7235 49.7514 46.2304 50.5948C48.9974 50.9046 55.2887 52.6581 57.5952 54.0415C58.7312 54.7236 59.9275 55.6853 60.8936 56.5093C62.2383 57.6539 62.9376 59.6549 64.0608 61.006C65.0634 62.213 64.6955 64.0633 65.1688 65.3198C66.0897 67.7618 65.7842 69.8746 65.1796 72.3144C64.2867 75.9204 64.7062 79.9502 61.2895 84.3909L59.4456 86.7877C58.6817 87.7817 58.217 88.5821 57.3112 89.4513C55.2306 91.4479 52.9628 93.4295 49.9742 93.8404C49.5116 93.9049 49.1286 93.4144 49.0942 93.0938C48.8963 91.2715 51.6525 90.8132 53.4168 83.3109C53.7072 82.0802 53.7201 81.6456 53.4254 80.4041C52.8789 78.1106 52.0462 75.8924 51.0586 73.7452C49.9269 71.2838 48.2938 69.7778 45.7614 68.9107C44.2058 68.3793 42.7943 68.4503 41.144 68.3018C36.9785 67.9232 33.3832 69.8208 31.4037 73.5214C31.4876 73.3644 25.8676 81.0259 25.5514 81.7058C24.9403 83.0161 23.3955 87.2567 23.3632 88.5369C23.3137 90.4518 23.034 92.4484 23.3675 94.3546C23.8408 97.0655 24.7832 99.9808 26.3087 102.3C28.2323 105.222 31.5436 106.668 34.5106 108.262C35.5735 108.832 36.3244 109.863 37.5681 109.979C38.9064 110.104 40.1478 110.117 41.3119 110.964L41.3205 110.969Z" fill="url(#paint1_linear_12_56)"/>
<path d="M49.5934 143.822L37.1399 144.195C35.8554 144.233 35.2078 144.866 33.8587 144.167C32.6172 143.523 30.7475 144.455 29.3748 143.956C26.4507 142.895 23.5525 142.271 20.6027 141.705C19.344 141.464 11.0732 136.053 9.91566 134.965L5.28971 130.614C4.52804 129.898 -0.452919 126.752 0.0333433 124.803C0.306597 123.71 1.14357 122.963 2.44098 122.912C3.4049 122.873 4.4721 123.194 4.78408 124.179C5.22516 125.573 6.47524 125.885 7.42195 126.785L12.8139 131.903L15.2904 133.749C21.7839 138.592 20.4736 137.271 26.5648 138.934L31.6555 140.324C36.6493 141.688 55.8782 139.341 52.9047 139.085C52.7713 139.074 58.0298 136.867 58.1654 136.834C60.8915 136.189 65.3948 133.265 67.5937 131.608C69.2547 130.358 70.7824 129.45 71.6989 127.391C72.0626 126.574 73.2567 125.59 74.0636 125.175L78.1731 123.06C80.1203 122.058 81.5877 122.247 83.4575 122.742C86.8376 123.639 87.8489 124.293 89.3787 127.4C90.2996 129.274 89.71 130.644 89.4346 132.391C88.546 137.998 85.5746 140.907 80.0343 142.303C77.8977 142.841 76.0387 142.998 73.6419 141.92C74.3605 143.648 76.2345 144.844 77.8246 145.143L80.8433 145.714C82.1579 145.963 83.5478 146.606 84.8173 146.525C87.6617 146.342 90.4652 144.724 92.7631 143.19C94.1488 142.265 96.6726 139.276 97.2837 137.796L98.5553 134.724C98.992 133.669 99.8355 132.273 101.389 132.607C102.191 132.779 102.962 134.119 103.312 134.956L98.0884 145.486C95.2289 147.297 92.6642 149.573 89.4518 150.74C87.6488 151.396 85.4004 150.529 83.5306 150.938C82.3236 151.202 81.5597 150.559 80.5592 150.268C74.6832 148.556 74.3755 150.481 69.5473 144.918C69.1256 144.431 68.833 143.087 68.6824 142.471C68.1531 140.328 68.5963 138.071 68.6609 135.993C65.2635 138.041 53.0359 143.713 49.5934 143.816V143.822Z" fill="url(#paint2_linear_12_56)"/>
<path d="M157.075 88.7477C156.149 90.4582 151.857 93.9222 150.97 92.9841C150.026 91.9836 151.166 91.0111 151.657 90.1677C152.888 88.0485 155.235 83.696 155.185 81.5488C155.136 79.4015 153.765 77.7083 152.218 76.6691C151.601 76.2539 152.145 75.1071 152.399 74.6402C152.756 73.984 153.789 73.8872 154.452 73.8312C156.063 73.6935 156.397 74.6639 157.1 75.6514C160.104 79.8663 159.487 84.2833 157.075 88.7477Z" fill="url(#paint3_linear_12_56)"/>
<defs>
<linearGradient id="paint0_linear_12_56" x1="90.5" y1="0" x2="90.5" y2="151" gradientUnits="userSpaceOnUse">
<stop stop-color="#C4A7E7"/>
<stop offset="1" stop-color="#F6C279"/>
</linearGradient>
<linearGradient id="paint1_linear_12_56" x1="90.5" y1="0" x2="90.5" y2="151" gradientUnits="userSpaceOnUse">
<stop stop-color="#C4A7E7"/>
<stop offset="1" stop-color="#F6C279"/>
</linearGradient>
<linearGradient id="paint2_linear_12_56" x1="90.5" y1="0" x2="90.5" y2="151" gradientUnits="userSpaceOnUse">
<stop stop-color="#C4A7E7"/>
<stop offset="1" stop-color="#F6C279"/>
</linearGradient>
<linearGradient id="paint3_linear_12_56" x1="90.5" y1="0" x2="90.5" y2="151" gradientUnits="userSpaceOnUse">
<stop stop-color="#C4A7E7"/>
<stop offset="1" stop-color="#F6C279"/>
</linearGradient>
</defs>
</svg>
